<?xml version="1.0" encoding="iso-8859-1"?>
<!-- Generator: Adobe Illustrator 16.0.0, SVG Export Plug-In . SVG Version: 6.00 Build 0)  -->
<!DOCTYPE svg PUBLIC "-//W3C//DTD SVG 1.1//EN" "http://www.w3.org/Graphics/SVG/1.1/DTD/svg11.dtd">
<svg version="1.1" id="Capa_1" xmlns="http://www.w3.org/2000/svg" xmlns:xlink="http://www.w3.org/1999/xlink" x="0px" y="0px"
	 width="511.938px" height="511.938px" viewBox="0 0 511.938 511.938" style="enable-background:new 0 0 511.938 511.938;"
	 xml:space="preserve">
<g>
	<path d="M489.862,0.516l-44.03,32.353l-21.875,32.5l1.631,1.628L253.401,239.178l-19.583-19.579c-6.724-6.727-17.623-6.727-24.35,0
		c-3.245,3.242-4.915,7.468-5.018,11.721c-8.098,1.522-15.844,5.399-22.109,11.665L12.402,412.922
		c-16.536,16.538-16.536,43.355,0,59.894l26.202,26.202c16.535,16.539,43.35,16.539,59.891,0l169.938-169.939
		c6.076-6.077,9.895-13.548,11.509-21.374c4.551,0.112,9.144-1.549,12.613-5.024c6.721-6.721,6.721-17.619,0-24.346l-18.826-18.814
		L445.915,87.342l1.614,1.623l32.361-22.027l32.048-44.331L489.862,0.516z M44.784,425.831c-7.128-7.135-7.128-18.69,0-25.83
		l132.88-132.88c7.131-7.129,18.696-7.129,25.827,0c7.134,7.134,7.134,18.695,0,25.836L70.611,425.831
		C63.479,432.971,51.915,432.971,44.784,425.831z M246.911,336.377l-132.88,132.881c-7.134,7.128-18.69,7.128-25.824,0
		c-7.137-7.135-7.137-18.696,0-25.836l132.877-132.875c7.131-7.14,18.699-7.14,25.827,0
		C254.048,317.676,254.048,329.237,246.911,336.377z"/>
</g>
<g>
</g>
<g>
</g>
<g>
</g>
<g>
</g>
<g>
</g>
<g>
</g>
<g>
</g>
<g>
</g>
<g>
</g>
<g>
</g>
<g>
</g>
<g>
</g>
<g>
</g>
<g>
</g>
<g>
</g>
</svg>
