<?xml version="1.0" encoding="UTF-8" standalone="no"?>
<!-- Generator: Adobe Illustrator 16.0.0, SVG Export Plug-In . SVG Version: 6.00 Build 0)  -->

<svg
   xmlns:dc="http://purl.org/dc/elements/1.1/"
   xmlns:cc="http://creativecommons.org/ns#"
   xmlns:rdf="http://www.w3.org/1999/02/22-rdf-syntax-ns#"
   xmlns:svg="http://www.w3.org/2000/svg"
   xmlns="http://www.w3.org/2000/svg"
   xmlns:sodipodi="http://sodipodi.sourceforge.net/DTD/sodipodi-0.dtd"
   xmlns:inkscape="http://www.inkscape.org/namespaces/inkscape"
   version="1.1"
   id="Capa_1"
   x="0px"
   y="0px"
   width="302.36221"
   height="54.923557"
   viewBox="0 0 302.36222 54.923559"
   xml:space="preserve"
   sodipodi:docname="screwdriverMod.svg"
   inkscape:version="0.92.1 r15371"><metadata
     id="metadata4532"><rdf:RDF><cc:Work
         rdf:about=""><dc:format>image/svg+xml</dc:format><dc:type
           rdf:resource="http://purl.org/dc/dcmitype/StillImage" /><dc:title></dc:title></cc:Work></rdf:RDF></metadata><defs
     id="defs4530" /><sodipodi:namedview
     pagecolor="#ffffff"
     bordercolor="#666666"
     borderopacity="1"
     objecttolerance="10"
     gridtolerance="10"
     guidetolerance="10"
     inkscape:pageopacity="0"
     inkscape:pageshadow="2"
     inkscape:window-width="1680"
     inkscape:window-height="988"
     id="namedview4528"
     showgrid="false"
     fit-margin-top="0"
     fit-margin-left="0"
     fit-margin-right="0"
     fit-margin-bottom="0"
     inkscape:zoom="0.46099333"
     inkscape:cx="160.71856"
     inkscape:cy="-102.22543"
     inkscape:window-x="-8"
     inkscape:window-y="-8"
     inkscape:window-maximized="1"
     inkscape:current-layer="Capa_1" /><g
     id="g4495"
     transform="matrix(0.31801934,0.31866155,-0.31866155,0.31801934,146.74104,-135.26921)"><path
       d="m 489.862,0.516 -44.03,32.353 -21.875,32.5 1.631,1.628 -172.187,172.181 -19.583,-19.579 c -6.724,-6.727 -17.623,-6.727 -24.35,0 -3.245,3.242 -4.915,7.468 -5.018,11.721 -8.098,1.522 -15.844,5.399 -22.109,11.665 L 12.402,412.922 c -16.536,16.538 -16.536,43.355 0,59.894 l 26.202,26.202 c 16.535,16.539 43.35,16.539 59.891,0 L 268.433,329.079 c 6.076,-6.077 9.895,-13.548 11.509,-21.374 4.551,0.112 9.144,-1.549 12.613,-5.024 6.721,-6.721 6.721,-17.619 0,-24.346 L 273.729,259.521 445.915,87.342 447.529,88.965 479.89,66.938 511.938,22.607 Z M 44.784,425.831 c -7.128,-7.135 -7.128,-18.69 0,-25.83 l 132.88,-132.88 c 7.131,-7.129 18.696,-7.129 25.827,0 7.134,7.134 7.134,18.695 0,25.836 L 70.611,425.831 c -7.132,7.14 -18.696,7.14 -25.827,0 z m 202.127,-89.454 -132.88,132.881 c -7.134,7.128 -18.69,7.128 -25.824,0 -7.137,-7.135 -7.137,-18.696 0,-25.836 L 221.084,310.547 c 7.131,-7.14 18.699,-7.14 25.827,0 7.137,7.129 7.137,18.69 0,25.83 z"
       id="path4493"
       inkscape:connector-curvature="0" /></g><g
     id="g4497"
     transform="translate(-95.250437,-98.820007)" /><g
     id="g4499"
     transform="translate(-95.250437,-98.820007)" /><g
     id="g4501"
     transform="translate(-95.250437,-98.820007)" /><g
     id="g4503"
     transform="translate(-95.250437,-98.820007)" /><g
     id="g4505"
     transform="translate(-95.250437,-98.820007)" /><g
     id="g4507"
     transform="translate(-95.250437,-98.820007)" /><g
     id="g4509"
     transform="translate(-95.250437,-98.820007)" /><g
     id="g4511"
     transform="translate(-95.250437,-98.820007)" /><g
     id="g4513"
     transform="translate(-95.250437,-98.820007)" /><g
     id="g4515"
     transform="translate(-95.250437,-98.820007)" /><g
     id="g4517"
     transform="translate(-95.250437,-98.820007)" /><g
     id="g4519"
     transform="translate(-95.250437,-98.820007)" /><g
     id="g4521"
     transform="translate(-95.250437,-98.820007)" /><g
     id="g4523"
     transform="translate(-95.250437,-98.820007)" /><g
     id="g4525"
     transform="translate(-95.250437,-98.820007)" /></svg>